<svg xmlns="http://www.w3.org/2000/svg" fill="#b2e300" viewBox="0 0 32 32"><path d="M18.834.417c-6.585 0-12.993 6.94-14.313 15.5-.469 3.043-.232 5.881.564 8.275a16 16 0 0 1-.76-1.329c-1.095-2.144-1.633-4.335-1.658-6.384-.779 2.404-.536 5.469.96 8.398 1.837 3.596 5.409 6.097 9.275 6.466q.562.073 1.152.073c6.585 0 12.993-6.94 14.313-15.5.615-3.992.015-7.631-1.468-10.379 1.434 1.45 2.424 3.036 2.959 4.609.041-2.016-.933-4.361-2.932-6.353C24.69 1.565 21.805.417 19.3.429a9 9 0 0 0-.467-.013Zm-.371 2.411c2.667 0 4.884 1.349 6.346 3.55 1.055 2.844.83 7.183.065 9.805-1.062 3.644-2.692 6.368-5.29 8.363-2.771 2.128-6.528 1.617-7.684-.385a3 3 0 0 1-.224-.49c.777.932 2.532.991 4.099.086 1.69-.976 2.52-2.701 1.855-3.853s-2.575-1.296-4.264-.321a4.7 4.7 0 0 0-1.534 1.388q.05-.13.108-.257c-1.239 1.624-1.629 3.457-.852 4.802 2.566 3.045 6.503 1.691 9.333-.426 2.517-1.883 4.796-4.877 5.926-8.753q.126-.431.23-.863-.028.22-.062.443c-1.115 7.23-6.526 13.09-12.087 13.09-2.364 0-4.374-1.059-5.818-2.832-1.757-3.209-1.06-9.422.31-12.278 1.774-3.696 4.386-8.141 8.908-7.746 3.052.267 4.184 3.888 2.595 7.707a11.2 11.2 0 0 1-2.401 3.602c1.652-1.101 3.098-2.794 3.95-4.841 1.59-3.819.46-7.521-2.595-7.746-5.686-.418-9.127 3.883-11.774 8.52a21 21 0 0 0-1.391 4.026q.049-.74.165-1.502c1.114-7.23 6.526-13.09 12.087-13.09Z"/></svg>