<svg xmlns="http://www.w3.org/2000/svg" viewBox="0 0 32 32" fill="#b2e300ff">
  <path d="M18.834 0.417c-6.585 0-12.993 6.94-14.313 15.5-0.469 3.043-0.232 5.881 0.564 8.275-0.271-0.425-0.525-0.868-0.76-1.329-1.095-2.144-1.633-4.335-1.658-6.384-0.779 2.404-0.536 5.469 0.96 8.398 1.837 3.596 5.409 6.097 9.275 6.466 0.375 0.048 0.759 0.073 1.152 0.073 6.585 0 12.993-6.94 14.313-15.5 0.615-3.992 0.015-7.631-1.468-10.379 1.434 1.45 2.424 3.036 2.959 4.609 0.041-2.016-0.933-4.361-2.932-6.353-2.236-2.228-5.121-3.376-7.626-3.364-0.154-0.008-0.31-0.013-0.467-0.013zM18.463 2.828c2.667 0 4.884 1.349 6.346 3.55 1.055 2.844 0.83 7.183 0.065 9.805-1.062 3.644-2.692 6.368-5.29 8.363-2.771 2.128-6.528 1.617-7.684-0.385-0.091-0.157-0.165-0.32-0.224-0.49 0.777 0.932 2.532 0.991 4.099 0.086 1.69-0.976 2.52-2.701 1.855-3.853s-2.575-1.296-4.264-0.321c-0.652 0.376-1.175 0.865-1.534 1.388 0.034-0.086 0.069-0.172 0.108-0.257-1.239 1.624-1.629 3.457-0.852 4.802 2.566 3.045 6.503 1.691 9.333-0.426 2.517-1.883 4.796-4.877 5.926-8.753 0.084-0.288 0.16-0.575 0.23-0.863-0.019 0.147-0.039 0.295-0.062 0.443-1.115 7.23-6.526 13.090-12.087 13.090-2.364 0-4.374-1.059-5.818-2.832-1.757-3.209-1.060-9.422 0.31-12.278 1.774-3.696 4.386-8.141 8.908-7.746 3.052 0.267 4.184 3.888 2.595 7.707-0.571 1.372-1.405 2.607-2.401 3.602 1.652-1.101 3.098-2.794 3.95-4.841 1.59-3.819 0.46-7.521-2.595-7.746-5.686-0.418-9.127 3.883-11.774 8.52-0.611 1.32-1.073 2.676-1.391 4.026 0.033-0.493 0.087-0.994 0.165-1.502 1.114-7.23 6.526-13.090 12.087-13.090z"/>
</svg>